<svg xmlns="http://www.w3.org/2000/svg" xmlns:xlink="http://www.w3.org/1999/xlink" width="2000" zoomAndPan="magnify" viewBox="0 0 1500 1499.999933" height="2000" preserveAspectRatio="xMidYMid meet" version="1.0"><defs><g/><clipPath id="3f820ef1ce"><path d="M 0.480469 834 L 1248.960938 834 L 1248.960938 1197 L 0.480469 1197 Z M 0.480469 834 " clip-rule="nonzero"/></clipPath><clipPath id="1a32a9cc55"><rect x="0" width="1249" y="0" height="363"/></clipPath><clipPath id="473a9d2662"><rect x="0" width="636" y="0" height="177"/></clipPath><clipPath id="2d61c55802"><path d="M 253 0.878906 L 913 0.878906 L 913 779.867188 L 253 779.867188 Z M 253 0.878906 " clip-rule="nonzero"/></clipPath><clipPath id="c52b0ad0a0"><path d="M 1 2 L 659.480469 2 L 659.480469 779.867188 L 1 779.867188 Z M 1 2 " clip-rule="nonzero"/></clipPath><clipPath id="077a021ead"><rect x="0" width="660" y="0" height="780"/></clipPath><clipPath id="d6f35221b1"><rect x="0" width="1249" y="0" height="1420"/></clipPath></defs><rect x="-150" width="1800" fill="#ffffff" y="-149.999993" height="1799.99992" fill-opacity="1"/><rect x="-150" width="1800" fill="#6e8878" y="-149.999993" height="1799.99992" fill-opacity="1"/><g transform="matrix(1, 0, 0, 1, 126, 80)"><g clip-path="url(#d6f35221b1)"><g clip-path="url(#3f820ef1ce)"><g transform="matrix(1, 0, 0, 1, -0.000000000000014211, 834)"><g clip-path="url(#1a32a9cc55)"><g fill="#f2ece4" fill-opacity="1"><g transform="translate(2.955703, 293.651221)"><g><path d="M 87.21875 -192.515625 L 153.09375 -22.6875 C 155.800781 -15.84375 158.863281 -11.296875 162.28125 -9.046875 C 165.695312 -6.796875 168.847656 -5.582031 171.734375 -5.40625 L 171.734375 0 C 168.128906 -0.363281 163.71875 -0.585938 158.5 -0.671875 C 153.28125 -0.765625 148.0625 -0.8125 142.84375 -0.8125 C 135.820312 -0.8125 129.25 -0.765625 123.125 -0.671875 C 117.007812 -0.585938 112.0625 -0.363281 108.28125 0 L 108.28125 -5.40625 C 117.457031 -5.757812 123.304688 -7.332031 125.828125 -10.125 C 128.347656 -12.914062 127.804688 -18.898438 124.203125 -28.078125 L 73.984375 -162.28125 L 78.296875 -165.796875 L 31.328125 -43.75 C 28.441406 -36.539062 26.726562 -30.460938 26.1875 -25.515625 C 25.644531 -20.566406 26.140625 -16.648438 27.671875 -13.765625 C 29.203125 -10.890625 31.8125 -8.820312 35.5 -7.5625 C 39.195312 -6.300781 43.832031 -5.582031 49.40625 -5.40625 L 49.40625 0 C 44.375 -0.363281 39.109375 -0.585938 33.609375 -0.671875 C 28.117188 -0.765625 23.035156 -0.8125 18.359375 -0.8125 C 13.859375 -0.8125 10.03125 -0.765625 6.875 -0.671875 C 3.726562 -0.585938 0.804688 -0.363281 -1.890625 0 L -1.890625 -5.40625 C 1.710938 -6.300781 5.398438 -8.410156 9.171875 -11.734375 C 12.953125 -15.066406 16.375 -20.785156 19.4375 -28.890625 L 82.890625 -192.515625 C 83.609375 -192.515625 84.328125 -192.515625 85.046875 -192.515625 C 85.773438 -192.515625 86.5 -192.515625 87.21875 -192.515625 Z M 120.15625 -77.765625 L 120.15625 -72.359375 L 39.6875 -72.359375 L 42.390625 -77.765625 Z M 120.15625 -77.765625 "/></g></g></g><g fill="#f2ece4" fill-opacity="1"><g transform="translate(173.062998, 293.651221)"><g><path d="M 98.5625 -142.84375 C 105.394531 -142.84375 111.109375 -141.941406 115.703125 -140.140625 C 120.296875 -138.335938 124.117188 -135.816406 127.171875 -132.578125 C 130.597656 -128.972656 133.03125 -124.46875 134.46875 -119.0625 C 135.90625 -113.664062 136.625 -106.378906 136.625 -97.203125 L 136.625 -25.109375 C 136.625 -17.546875 138.195312 -12.414062 141.34375 -9.71875 C 144.5 -7.019531 149.769531 -5.671875 157.15625 -5.671875 L 157.15625 0 C 154.09375 -0.175781 149.410156 -0.398438 143.109375 -0.671875 C 136.804688 -0.941406 130.6875 -1.078125 124.75 -1.078125 C 118.8125 -1.078125 113.003906 -0.941406 107.328125 -0.671875 C 101.660156 -0.398438 97.382812 -0.175781 94.5 0 L 94.5 -5.671875 C 100.976562 -5.671875 105.566406 -7.019531 108.265625 -9.71875 C 110.972656 -12.414062 112.328125 -17.546875 112.328125 -25.109375 L 112.328125 -103.140625 C 112.328125 -108.722656 111.875 -113.851562 110.96875 -118.53125 C 110.070312 -123.21875 108.046875 -127 104.890625 -129.875 C 101.742188 -132.757812 96.929688 -134.203125 90.453125 -134.203125 C 82.890625 -134.203125 76.273438 -132.039062 70.609375 -127.71875 C 64.941406 -123.394531 60.53125 -117.5 57.375 -110.03125 C 54.226562 -102.5625 52.65625 -94.238281 52.65625 -85.0625 L 52.65625 -25.109375 C 52.65625 -17.546875 54.003906 -12.414062 56.703125 -9.71875 C 59.398438 -7.019531 63.988281 -5.671875 70.46875 -5.671875 L 70.46875 0 C 67.59375 -0.175781 63.316406 -0.398438 57.640625 -0.671875 C 51.972656 -0.941406 46.171875 -1.078125 40.234375 -1.078125 C 34.296875 -1.078125 28.175781 -0.941406 21.875 -0.671875 C 15.570312 -0.398438 10.890625 -0.175781 7.828125 0 L 7.828125 -5.671875 C 15.210938 -5.671875 20.476562 -7.019531 23.625 -9.71875 C 26.78125 -12.414062 28.359375 -17.546875 28.359375 -25.109375 L 28.359375 -109.625 C 28.359375 -117.726562 26.914062 -123.710938 24.03125 -127.578125 C 21.15625 -131.453125 15.753906 -133.390625 7.828125 -133.390625 L 7.828125 -139.0625 C 13.585938 -138.519531 19.171875 -138.25 24.578125 -138.25 C 29.796875 -138.25 34.789062 -138.5625 39.5625 -139.1875 C 44.332031 -139.820312 48.695312 -140.769531 52.65625 -142.03125 L 52.65625 -110.171875 C 57.332031 -122.410156 63.851562 -130.914062 72.21875 -135.6875 C 80.59375 -140.457031 89.375 -142.84375 98.5625 -142.84375 Z M 98.5625 -142.84375 "/></g></g></g><g fill="#f2ece4" fill-opacity="1"><g transform="translate(334.259924, 293.651221)"><g><path d="M 46.171875 1.890625 C 38.796875 1.890625 32.40625 0.492188 27 -2.296875 C 21.601562 -5.085938 17.507812 -9 14.71875 -14.03125 C 11.925781 -19.070312 10.53125 -24.925781 10.53125 -31.59375 C 10.53125 -39.507812 12.375 -45.988281 16.0625 -51.03125 C 19.75 -56.070312 24.472656 -60.125 30.234375 -63.1875 C 35.992188 -66.25 42.066406 -68.8125 48.453125 -70.875 C 54.847656 -72.945312 60.925781 -74.925781 66.6875 -76.8125 C 72.445312 -78.707031 77.171875 -80.914062 80.859375 -83.4375 C 84.554688 -85.957031 86.40625 -89.285156 86.40625 -93.421875 L 86.40625 -110.171875 C 86.40625 -117.722656 85.28125 -123.476562 83.03125 -127.4375 C 80.78125 -131.40625 77.765625 -134.0625 73.984375 -135.40625 C 70.203125 -136.757812 65.972656 -137.4375 61.296875 -137.4375 C 56.796875 -137.4375 51.976562 -136.804688 46.84375 -135.546875 C 41.71875 -134.285156 37.625 -131.675781 34.5625 -127.71875 C 37.976562 -127 40.945312 -125.195312 43.46875 -122.3125 C 45.988281 -119.4375 47.25 -115.75 47.25 -111.25 C 47.25 -106.75 45.804688 -103.191406 42.921875 -100.578125 C 40.046875 -97.972656 36.359375 -96.671875 31.859375 -96.671875 C 26.640625 -96.671875 22.8125 -98.332031 20.375 -101.65625 C 17.945312 -104.988281 16.734375 -108.722656 16.734375 -112.859375 C 16.734375 -117.546875 17.90625 -121.328125 20.25 -124.203125 C 22.59375 -127.085938 25.5625 -129.789062 29.15625 -132.3125 C 33.300781 -135.1875 38.65625 -137.660156 45.21875 -139.734375 C 51.789062 -141.804688 59.21875 -142.84375 67.5 -142.84375 C 74.882812 -142.84375 81.1875 -141.984375 86.40625 -140.265625 C 91.625 -138.554688 95.941406 -136.082031 99.359375 -132.84375 C 104.046875 -128.53125 107.109375 -123.265625 108.546875 -117.046875 C 109.984375 -110.835938 110.703125 -103.414062 110.703125 -94.78125 L 110.703125 -19.71875 C 110.703125 -15.207031 111.375 -11.960938 112.71875 -9.984375 C 114.070312 -8.003906 116.191406 -7.015625 119.078125 -7.015625 C 121.054688 -7.015625 122.945312 -7.460938 124.75 -8.359375 C 126.550781 -9.265625 128.710938 -10.707031 131.234375 -12.6875 L 134.203125 -8.09375 C 130.421875 -5.21875 126.816406 -2.832031 123.390625 -0.9375 C 119.972656 0.945312 115.382812 1.890625 109.625 1.890625 C 104.40625 1.890625 100.082031 0.988281 96.65625 -0.8125 C 93.238281 -2.613281 90.675781 -5.269531 88.96875 -8.78125 C 87.257812 -12.289062 86.40625 -16.742188 86.40625 -22.140625 C 81.539062 -14.035156 75.734375 -8.003906 68.984375 -4.046875 C 62.234375 -0.0859375 54.628906 1.890625 46.171875 1.890625 Z M 55.890625 -8.90625 C 61.828125 -8.90625 67.359375 -10.613281 72.484375 -14.03125 C 77.617188 -17.457031 82.257812 -22.59375 86.40625 -29.4375 L 86.40625 -82.359375 C 84.25 -79.296875 81.097656 -76.726562 76.953125 -74.65625 C 72.816406 -72.582031 68.316406 -70.507812 63.453125 -68.4375 C 58.585938 -66.375 53.953125 -63.945312 49.546875 -61.15625 C 45.140625 -58.363281 41.492188 -54.71875 38.609375 -50.21875 C 35.734375 -45.71875 34.296875 -39.867188 34.296875 -32.671875 C 34.296875 -25.472656 36.226562 -19.710938 40.09375 -15.390625 C 43.96875 -11.066406 49.234375 -8.90625 55.890625 -8.90625 Z M 55.890625 -8.90625 "/></g></g></g><g fill="#f2ece4" fill-opacity="1"><g transform="translate(468.725677, 293.651221)"><g/></g></g><g fill="#f2ece4" fill-opacity="1"><g transform="translate(535.958555, 293.651221)"><g><path d="M 80.1875 -191.171875 L 80.1875 -185.765625 C 74.070312 -185.585938 69.4375 -184.910156 66.28125 -183.734375 C 63.132812 -182.566406 61.019531 -180.410156 59.9375 -177.265625 C 58.863281 -174.117188 58.328125 -169.210938 58.328125 -162.546875 L 58.328125 -28.625 C 58.328125 -22.144531 58.863281 -17.285156 59.9375 -14.046875 C 61.019531 -10.804688 63.132812 -8.6875 66.28125 -7.6875 C 69.4375 -6.695312 74.070312 -6.203125 80.1875 -6.203125 L 99.90625 -6.203125 C 108.363281 -6.203125 115.25 -7.101562 120.5625 -8.90625 C 125.875 -10.707031 130.101562 -13.539062 133.25 -17.40625 C 136.40625 -21.28125 138.789062 -26.457031 140.40625 -32.9375 C 142.03125 -39.414062 143.289062 -47.335938 144.1875 -56.703125 L 150.40625 -56.703125 C 149.863281 -51.117188 149.59375 -43.738281 149.59375 -34.5625 C 149.59375 -31.144531 149.726562 -26.238281 150 -19.84375 C 150.269531 -13.457031 150.765625 -6.84375 151.484375 0 C 142.296875 -0.363281 131.941406 -0.585938 120.421875 -0.671875 C 108.898438 -0.765625 98.640625 -0.8125 89.640625 -0.8125 C 85.679688 -0.8125 80.597656 -0.8125 74.390625 -0.8125 C 68.179688 -0.8125 61.472656 -0.765625 54.265625 -0.671875 C 47.066406 -0.585938 39.773438 -0.5 32.390625 -0.40625 C 25.015625 -0.3125 18 -0.175781 11.34375 0 L 11.34375 -5.40625 C 17.457031 -5.757812 22.085938 -6.476562 25.234375 -7.5625 C 28.390625 -8.644531 30.507812 -10.804688 31.59375 -14.046875 C 32.675781 -17.285156 33.21875 -22.144531 33.21875 -28.625 L 33.21875 -162.546875 C 33.21875 -169.210938 32.675781 -174.117188 31.59375 -177.265625 C 30.507812 -180.410156 28.390625 -182.566406 25.234375 -183.734375 C 22.085938 -184.910156 17.457031 -185.585938 11.34375 -185.765625 L 11.34375 -191.171875 C 15.125 -190.992188 20.070312 -190.8125 26.1875 -190.625 C 32.3125 -190.445312 38.882812 -190.359375 45.90625 -190.359375 C 52.207031 -190.359375 58.460938 -190.445312 64.671875 -190.625 C 70.878906 -190.8125 76.050781 -190.992188 80.1875 -191.171875 Z M 80.1875 -191.171875 "/></g></g></g><g fill="#f2ece4" fill-opacity="1"><g transform="translate(694.725333, 293.651221)"><g><path d="M 73.4375 -142.84375 C 89.28125 -142.84375 101.65625 -138.023438 110.5625 -128.390625 C 119.476562 -118.765625 123.9375 -103.78125 123.9375 -83.4375 L 28.625 -83.4375 L 28.359375 -88.5625 L 98.015625 -88.5625 C 98.378906 -97.382812 97.660156 -105.53125 95.859375 -113 C 94.054688 -120.46875 91.21875 -126.453125 87.34375 -130.953125 C 83.476562 -135.453125 78.484375 -137.703125 72.359375 -137.703125 C 64.078125 -137.703125 56.738281 -133.5625 50.34375 -125.28125 C 43.957031 -117 40.132812 -103.859375 38.875 -85.859375 L 39.6875 -84.78125 C 39.332031 -82.082031 39.0625 -79.113281 38.875 -75.875 C 38.695312 -72.632812 38.609375 -69.394531 38.609375 -66.15625 C 38.609375 -53.914062 40.585938 -43.382812 44.546875 -34.5625 C 48.515625 -25.738281 53.691406 -19.03125 60.078125 -14.4375 C 66.460938 -9.851562 73.078125 -7.5625 79.921875 -7.5625 C 85.328125 -7.5625 90.457031 -8.414062 95.3125 -10.125 C 100.175781 -11.832031 104.675781 -14.664062 108.8125 -18.625 C 112.957031 -22.59375 116.554688 -27.90625 119.609375 -34.5625 L 125.015625 -32.40625 C 123.035156 -26.457031 119.796875 -20.691406 115.296875 -15.109375 C 110.796875 -9.535156 105.125 -4.992188 98.28125 -1.484375 C 91.445312 2.023438 83.53125 3.78125 74.53125 3.78125 C 61.5625 3.78125 50.441406 0.8125 41.171875 -5.125 C 31.898438 -11.070312 24.789062 -19.304688 19.84375 -29.828125 C 14.894531 -40.359375 12.421875 -52.46875 12.421875 -66.15625 C 12.421875 -82 14.941406 -95.632812 19.984375 -107.0625 C 25.023438 -118.488281 32.132812 -127.304688 41.3125 -133.515625 C 50.488281 -139.734375 61.195312 -142.84375 73.4375 -142.84375 Z M 73.4375 -142.84375 "/></g></g></g><g fill="#f2ece4" fill-opacity="1"><g transform="translate(831.351272, 293.651221)"><g><path d="M 130.6875 -211.6875 L 130.6875 -29.4375 C 130.6875 -21.332031 132.171875 -15.34375 135.140625 -11.46875 C 138.109375 -7.601562 143.460938 -5.671875 151.203125 -5.671875 L 151.203125 0 C 145.628906 -0.539062 140.050781 -0.8125 134.46875 -0.8125 C 129.25 -0.8125 124.253906 -0.539062 119.484375 0 C 114.710938 0.539062 110.347656 1.53125 106.390625 2.96875 L 106.390625 -179.296875 C 106.390625 -187.390625 104.945312 -193.367188 102.0625 -197.234375 C 99.1875 -201.109375 93.785156 -203.046875 85.859375 -203.046875 L 85.859375 -208.71875 C 91.617188 -208.175781 97.203125 -207.90625 102.609375 -207.90625 C 107.828125 -207.90625 112.820312 -208.21875 117.59375 -208.84375 C 122.363281 -209.476562 126.726562 -210.425781 130.6875 -211.6875 Z M 73.984375 -142.84375 C 81.898438 -142.84375 89.320312 -140.953125 96.25 -137.171875 C 103.1875 -133.390625 107.828125 -126.910156 110.171875 -117.734375 L 106.65625 -115.03125 C 104.132812 -122.59375 100.21875 -128.082031 94.90625 -131.5 C 89.59375 -134.914062 83.335938 -136.625 76.140625 -136.625 C 65.523438 -136.625 56.660156 -131.132812 49.546875 -120.15625 C 42.429688 -109.175781 38.96875 -92.253906 39.15625 -69.390625 C 39.15625 -54.804688 40.546875 -42.695312 43.328125 -33.0625 C 46.117188 -23.4375 50.257812 -16.238281 55.75 -11.46875 C 61.25 -6.695312 67.957031 -4.3125 75.875 -4.3125 C 83.4375 -4.3125 90.273438 -7.550781 96.390625 -14.03125 C 102.515625 -20.519531 106.207031 -30.0625 107.46875 -42.65625 L 110.703125 -38.875 C 109.265625 -25.195312 104.898438 -14.664062 97.609375 -7.28125 C 90.316406 0.09375 80.460938 3.78125 68.046875 3.78125 C 56.878906 3.78125 47.109375 1.082031 38.734375 -4.3125 C 30.367188 -9.71875 23.976562 -17.820312 19.5625 -28.625 C 15.15625 -39.425781 12.953125 -53.015625 12.953125 -69.390625 C 12.953125 -85.773438 15.785156 -99.410156 21.453125 -110.296875 C 27.128906 -121.191406 34.601562 -129.335938 43.875 -134.734375 C 53.144531 -140.140625 63.179688 -142.84375 73.984375 -142.84375 Z M 73.984375 -142.84375 "/></g></g></g><g fill="#f2ece4" fill-opacity="1"><g transform="translate(988.22793, 293.651221)"><g><path d="M 73.4375 -142.84375 C 89.28125 -142.84375 101.65625 -138.023438 110.5625 -128.390625 C 119.476562 -118.765625 123.9375 -103.78125 123.9375 -83.4375 L 28.625 -83.4375 L 28.359375 -88.5625 L 98.015625 -88.5625 C 98.378906 -97.382812 97.660156 -105.53125 95.859375 -113 C 94.054688 -120.46875 91.21875 -126.453125 87.34375 -130.953125 C 83.476562 -135.453125 78.484375 -137.703125 72.359375 -137.703125 C 64.078125 -137.703125 56.738281 -133.5625 50.34375 -125.28125 C 43.957031 -117 40.132812 -103.859375 38.875 -85.859375 L 39.6875 -84.78125 C 39.332031 -82.082031 39.0625 -79.113281 38.875 -75.875 C 38.695312 -72.632812 38.609375 -69.394531 38.609375 -66.15625 C 38.609375 -53.914062 40.585938 -43.382812 44.546875 -34.5625 C 48.515625 -25.738281 53.691406 -19.03125 60.078125 -14.4375 C 66.460938 -9.851562 73.078125 -7.5625 79.921875 -7.5625 C 85.328125 -7.5625 90.457031 -8.414062 95.3125 -10.125 C 100.175781 -11.832031 104.675781 -14.664062 108.8125 -18.625 C 112.957031 -22.59375 116.554688 -27.90625 119.609375 -34.5625 L 125.015625 -32.40625 C 123.035156 -26.457031 119.796875 -20.691406 115.296875 -15.109375 C 110.796875 -9.535156 105.125 -4.992188 98.28125 -1.484375 C 91.445312 2.023438 83.53125 3.78125 74.53125 3.78125 C 61.5625 3.78125 50.441406 0.8125 41.171875 -5.125 C 31.898438 -11.070312 24.789062 -19.304688 19.84375 -29.828125 C 14.894531 -40.359375 12.421875 -52.46875 12.421875 -66.15625 C 12.421875 -82 14.941406 -95.632812 19.984375 -107.0625 C 25.023438 -118.488281 32.132812 -127.304688 41.3125 -133.515625 C 50.488281 -139.734375 61.195312 -142.84375 73.4375 -142.84375 Z M 73.4375 -142.84375 "/></g></g></g><g fill="#f2ece4" fill-opacity="1"><g transform="translate(1124.853869, 293.651221)"><g><path d="M 91.8125 -142.84375 C 96.664062 -142.84375 100.9375 -141.847656 104.625 -139.859375 C 108.320312 -137.878906 111.203125 -135.316406 113.265625 -132.171875 C 115.335938 -129.023438 116.375 -125.46875 116.375 -121.5 C 116.375 -117 114.976562 -113.039062 112.1875 -109.625 C 109.394531 -106.207031 105.660156 -104.5 100.984375 -104.5 C 97.203125 -104.5 93.867188 -105.710938 90.984375 -108.140625 C 88.109375 -110.566406 86.671875 -114.03125 86.671875 -118.53125 C 86.671875 -121.957031 87.613281 -124.882812 89.5 -127.3125 C 91.394531 -129.738281 93.515625 -131.675781 95.859375 -133.125 C 94.597656 -134.914062 92.707031 -135.8125 90.1875 -135.8125 C 84.601562 -135.8125 79.472656 -134.144531 74.796875 -130.8125 C 70.117188 -127.488281 66.15625 -123.21875 62.90625 -118 C 59.664062 -112.78125 57.144531 -107.242188 55.34375 -101.390625 C 53.550781 -95.535156 52.65625 -90.09375 52.65625 -85.0625 L 52.65625 -27.8125 C 52.65625 -18.988281 55.21875 -13.09375 60.34375 -10.125 C 65.476562 -7.15625 72.457031 -5.671875 81.28125 -5.671875 L 81.28125 0 C 77.132812 -0.175781 71.28125 -0.398438 63.71875 -0.671875 C 56.164062 -0.941406 48.15625 -1.078125 39.6875 -1.078125 C 33.570312 -1.078125 27.5 -0.941406 21.46875 -0.671875 C 15.4375 -0.398438 10.890625 -0.175781 7.828125 0 L 7.828125 -5.671875 C 15.210938 -5.671875 20.476562 -7.019531 23.625 -9.71875 C 26.78125 -12.414062 28.359375 -17.546875 28.359375 -25.109375 L 28.359375 -109.625 C 28.359375 -117.726562 26.914062 -123.710938 24.03125 -127.578125 C 21.15625 -131.453125 15.753906 -133.390625 7.828125 -133.390625 L 7.828125 -139.0625 C 13.585938 -138.519531 19.171875 -138.25 24.578125 -138.25 C 29.796875 -138.25 34.789062 -138.5625 39.5625 -139.1875 C 44.332031 -139.820312 48.695312 -140.769531 52.65625 -142.03125 L 52.65625 -108.28125 C 54.632812 -113.5 57.46875 -118.757812 61.15625 -124.0625 C 64.84375 -129.375 69.296875 -133.832031 74.515625 -137.4375 C 79.742188 -141.039062 85.507812 -142.84375 91.8125 -142.84375 Z M 91.8125 -142.84375 "/></g></g></g></g></g></g><g transform="matrix(1, 0, 0, 1, 316, 1243)"><g clip-path="url(#473a9d2662)"><g fill="#f2ece4" fill-opacity="1"><g transform="translate(1.104197, 150.385954)"><g><path d="M 5.921875 -99.734375 C 7.890625 -99.640625 10.46875 -99.546875 13.65625 -99.453125 C 16.851562 -99.359375 20 -99.3125 23.09375 -99.3125 C 27.507812 -99.3125 31.734375 -99.359375 35.765625 -99.453125 C 39.804688 -99.546875 42.675781 -99.59375 44.375 -99.59375 C 54.226562 -99.59375 61.644531 -97.523438 66.625 -93.390625 C 71.601562 -89.253906 74.09375 -83.945312 74.09375 -77.46875 C 74.09375 -74.1875 73.410156 -70.972656 72.046875 -67.828125 C 70.679688 -64.679688 68.425781 -61.816406 65.28125 -59.234375 C 62.132812 -56.648438 57.9375 -54.5625 52.6875 -52.96875 L 52.6875 -52.6875 C 60.101562 -51.738281 65.898438 -49.972656 70.078125 -47.390625 C 74.253906 -44.816406 77.1875 -41.789062 78.875 -38.3125 C 80.570312 -34.84375 81.421875 -31.179688 81.421875 -27.328125 C 81.421875 -21.972656 80.082031 -17.253906 77.40625 -13.171875 C 74.726562 -9.085938 70.851562 -5.867188 65.78125 -3.515625 C 60.707031 -1.171875 54.648438 0 47.609375 0 C 45.546875 0 42.445312 -0.0664062 38.3125 -0.203125 C 34.175781 -0.347656 29.195312 -0.421875 23.375 -0.421875 C 20.09375 -0.421875 16.851562 -0.394531 13.65625 -0.34375 C 10.46875 -0.300781 7.890625 -0.1875 5.921875 0 L 5.921875 -2.8125 C 9.109375 -3 11.523438 -3.375 13.171875 -3.9375 C 14.816406 -4.507812 15.921875 -5.640625 16.484375 -7.328125 C 17.046875 -9.015625 17.328125 -11.550781 17.328125 -14.9375 L 17.328125 -84.796875 C 17.328125 -88.273438 17.046875 -90.832031 16.484375 -92.46875 C 15.921875 -94.113281 14.816406 -95.238281 13.171875 -95.84375 C 11.523438 -96.457031 9.109375 -96.8125 5.921875 -96.90625 Z M 40.84375 -96.90625 C 36.53125 -96.90625 33.710938 -96.109375 32.390625 -94.515625 C 31.078125 -92.921875 30.421875 -89.679688 30.421875 -84.796875 L 30.421875 -14.9375 C 30.421875 -11.644531 30.703125 -9.15625 31.265625 -7.46875 C 31.828125 -5.78125 32.859375 -4.648438 34.359375 -4.078125 C 35.867188 -3.515625 38.078125 -3.234375 40.984375 -3.234375 C 50.191406 -3.234375 56.882812 -5.367188 61.0625 -9.640625 C 65.238281 -13.921875 67.328125 -20.003906 67.328125 -27.890625 C 67.328125 -35.117188 65.378906 -40.703125 61.484375 -44.640625 C 57.585938 -48.585938 51.175781 -50.5625 42.25 -50.5625 L 27.75 -50.5625 C 27.75 -50.5625 27.75 -50.960938 27.75 -51.765625 C 27.75 -52.566406 27.75 -52.96875 27.75 -52.96875 L 39.859375 -52.96875 C 45.398438 -52.96875 49.671875 -54.019531 52.671875 -56.125 C 55.679688 -58.238281 57.75 -61.054688 58.875 -64.578125 C 60 -68.097656 60.5625 -71.878906 60.5625 -75.921875 C 60.5625 -82.867188 59.035156 -88.101562 55.984375 -91.625 C 52.929688 -95.144531 47.882812 -96.90625 40.84375 -96.90625 Z M 40.84375 -96.90625 "/></g></g></g><g fill="#f2ece4" fill-opacity="1"><g transform="translate(106.889205, 150.385954)"><g><path d="M 45.5 -100.4375 L 79.875 -11.828125 C 81.28125 -8.265625 82.875 -5.894531 84.65625 -4.71875 C 86.4375 -3.539062 88.082031 -2.90625 89.59375 -2.8125 L 89.59375 0 C 87.707031 -0.1875 85.398438 -0.300781 82.671875 -0.34375 C 79.953125 -0.394531 77.234375 -0.421875 74.515625 -0.421875 C 70.847656 -0.421875 67.414062 -0.394531 64.21875 -0.34375 C 61.03125 -0.300781 58.453125 -0.1875 56.484375 0 L 56.484375 -2.8125 C 61.273438 -3 64.328125 -3.820312 65.640625 -5.28125 C 66.953125 -6.738281 66.671875 -9.863281 64.796875 -14.65625 L 38.59375 -84.65625 L 40.84375 -86.484375 L 16.34375 -22.8125 C 14.832031 -19.0625 13.9375 -15.894531 13.65625 -13.3125 C 13.375 -10.726562 13.632812 -8.6875 14.4375 -7.1875 C 15.238281 -5.6875 16.597656 -4.601562 18.515625 -3.9375 C 20.441406 -3.28125 22.863281 -2.90625 25.78125 -2.8125 L 25.78125 0 C 23.144531 -0.1875 20.394531 -0.300781 17.53125 -0.34375 C 14.664062 -0.394531 12.015625 -0.421875 9.578125 -0.421875 C 7.234375 -0.421875 5.238281 -0.394531 3.59375 -0.34375 C 1.945312 -0.300781 0.421875 -0.1875 -0.984375 0 L -0.984375 -2.8125 C 0.890625 -3.28125 2.8125 -4.382812 4.78125 -6.125 C 6.757812 -7.863281 8.546875 -10.847656 10.140625 -15.078125 L 43.25 -100.4375 C 43.625 -100.4375 44 -100.4375 44.375 -100.4375 C 44.75 -100.4375 45.125 -100.4375 45.5 -100.4375 Z M 62.6875 -40.5625 L 62.6875 -37.75 L 20.703125 -37.75 L 22.109375 -40.5625 Z M 62.6875 -40.5625 "/></g></g></g><g fill="#f2ece4" fill-opacity="1"><g transform="translate(213.660184, 150.385954)"><g><path d="M 41.828125 -99.734375 L 41.828125 -96.90625 C 38.640625 -96.8125 36.222656 -96.457031 34.578125 -95.84375 C 32.929688 -95.238281 31.828125 -94.113281 31.265625 -92.46875 C 30.703125 -90.832031 30.421875 -88.273438 30.421875 -84.796875 L 30.421875 -14.9375 C 30.421875 -11.550781 30.703125 -9.015625 31.265625 -7.328125 C 31.828125 -5.640625 32.929688 -4.535156 34.578125 -4.015625 C 36.222656 -3.492188 38.640625 -3.234375 41.828125 -3.234375 L 52.125 -3.234375 C 56.53125 -3.234375 60.117188 -3.703125 62.890625 -4.640625 C 65.660156 -5.585938 67.867188 -7.066406 69.515625 -9.078125 C 71.160156 -11.097656 72.40625 -13.796875 73.25 -17.171875 C 74.09375 -20.554688 74.75 -24.691406 75.21875 -29.578125 L 78.453125 -29.578125 C 78.171875 -26.671875 78.03125 -22.820312 78.03125 -18.03125 C 78.03125 -16.25 78.097656 -13.691406 78.234375 -10.359375 C 78.378906 -7.023438 78.640625 -3.570312 79.015625 0 C 74.234375 -0.1875 68.835938 -0.300781 62.828125 -0.34375 C 56.816406 -0.394531 51.460938 -0.421875 46.765625 -0.421875 C 44.703125 -0.421875 42.050781 -0.421875 38.8125 -0.421875 C 35.570312 -0.421875 32.070312 -0.394531 28.3125 -0.34375 C 24.550781 -0.300781 20.742188 -0.253906 16.890625 -0.203125 C 13.046875 -0.160156 9.390625 -0.09375 5.921875 0 L 5.921875 -2.8125 C 9.109375 -3 11.523438 -3.375 13.171875 -3.9375 C 14.816406 -4.507812 15.921875 -5.640625 16.484375 -7.328125 C 17.046875 -9.015625 17.328125 -11.550781 17.328125 -14.9375 L 17.328125 -84.796875 C 17.328125 -88.273438 17.046875 -90.832031 16.484375 -92.46875 C 15.921875 -94.113281 14.816406 -95.238281 13.171875 -95.84375 C 11.523438 -96.457031 9.109375 -96.8125 5.921875 -96.90625 L 5.921875 -99.734375 C 7.890625 -99.640625 10.46875 -99.546875 13.65625 -99.453125 C 16.851562 -99.359375 20.285156 -99.3125 23.953125 -99.3125 C 27.234375 -99.3125 30.492188 -99.359375 33.734375 -99.453125 C 36.972656 -99.546875 39.671875 -99.640625 41.828125 -99.734375 Z M 41.828125 -99.734375 "/></g></g></g><g fill="#f2ece4" fill-opacity="1"><g transform="translate(314.515328, 150.385954)"><g><path d="M 45.5 -100.4375 L 79.875 -11.828125 C 81.28125 -8.265625 82.875 -5.894531 84.65625 -4.71875 C 86.4375 -3.539062 88.082031 -2.90625 89.59375 -2.8125 L 89.59375 0 C 87.707031 -0.1875 85.398438 -0.300781 82.671875 -0.34375 C 79.953125 -0.394531 77.234375 -0.421875 74.515625 -0.421875 C 70.847656 -0.421875 67.414062 -0.394531 64.21875 -0.34375 C 61.03125 -0.300781 58.453125 -0.1875 56.484375 0 L 56.484375 -2.8125 C 61.273438 -3 64.328125 -3.820312 65.640625 -5.28125 C 66.953125 -6.738281 66.671875 -9.863281 64.796875 -14.65625 L 38.59375 -84.65625 L 40.84375 -86.484375 L 16.34375 -22.8125 C 14.832031 -19.0625 13.9375 -15.894531 13.65625 -13.3125 C 13.375 -10.726562 13.632812 -8.6875 14.4375 -7.1875 C 15.238281 -5.6875 16.597656 -4.601562 18.515625 -3.9375 C 20.441406 -3.28125 22.863281 -2.90625 25.78125 -2.8125 L 25.78125 0 C 23.144531 -0.1875 20.394531 -0.300781 17.53125 -0.34375 C 14.664062 -0.394531 12.015625 -0.421875 9.578125 -0.421875 C 7.234375 -0.421875 5.238281 -0.394531 3.59375 -0.34375 C 1.945312 -0.300781 0.421875 -0.1875 -0.984375 0 L -0.984375 -2.8125 C 0.890625 -3.28125 2.8125 -4.382812 4.78125 -6.125 C 6.757812 -7.863281 8.546875 -10.847656 10.140625 -15.078125 L 43.25 -100.4375 C 43.625 -100.4375 44 -100.4375 44.375 -100.4375 C 44.75 -100.4375 45.125 -100.4375 45.5 -100.4375 Z M 62.6875 -40.5625 L 62.6875 -37.75 L 20.703125 -37.75 L 22.109375 -40.5625 Z M 62.6875 -40.5625 "/></g></g></g><g fill="#f2ece4" fill-opacity="1"><g transform="translate(421.286308, 150.385954)"><g><path d="M 94.375 -99.734375 L 94.375 -96.90625 C 91.1875 -96.8125 88.769531 -96.34375 87.125 -95.5 C 85.476562 -94.65625 84.375 -93.289062 83.8125 -91.40625 C 83.25 -89.53125 82.96875 -86.859375 82.96875 -83.390625 L 82.96875 0.703125 C 82.40625 0.703125 81.863281 0.703125 81.34375 0.703125 C 80.832031 0.703125 80.289062 0.703125 79.71875 0.703125 L 20.5625 -90.71875 L 20.5625 -16.34375 C 20.5625 -12.957031 20.863281 -10.300781 21.46875 -8.375 C 22.082031 -6.457031 23.304688 -5.097656 25.140625 -4.296875 C 26.972656 -3.492188 29.722656 -3 33.390625 -2.8125 L 33.390625 0 C 31.691406 -0.1875 29.476562 -0.300781 26.75 -0.34375 C 24.03125 -0.394531 21.453125 -0.421875 19.015625 -0.421875 C 16.671875 -0.421875 14.300781 -0.394531 11.90625 -0.34375 C 9.507812 -0.300781 7.515625 -0.1875 5.921875 0 L 5.921875 -2.8125 C 9.109375 -3 11.523438 -3.492188 13.171875 -4.296875 C 14.816406 -5.097656 15.921875 -6.457031 16.484375 -8.375 C 17.046875 -10.300781 17.328125 -12.957031 17.328125 -16.34375 L 17.328125 -84.796875 C 17.328125 -88.273438 17.046875 -90.832031 16.484375 -92.46875 C 15.921875 -94.113281 14.816406 -95.238281 13.171875 -95.84375 C 11.523438 -96.457031 9.109375 -96.8125 5.921875 -96.90625 L 5.921875 -99.734375 C 7.515625 -99.640625 9.507812 -99.546875 11.90625 -99.453125 C 14.300781 -99.359375 16.671875 -99.3125 19.015625 -99.3125 C 21.078125 -99.3125 23.046875 -99.359375 24.921875 -99.453125 C 26.804688 -99.546875 28.5 -99.640625 30 -99.734375 L 79.71875 -23.09375 L 79.71875 -83.390625 C 79.71875 -86.859375 79.410156 -89.53125 78.796875 -91.40625 C 78.191406 -93.289062 76.972656 -94.65625 75.140625 -95.5 C 73.316406 -96.34375 70.570312 -96.8125 66.90625 -96.90625 L 66.90625 -99.734375 C 68.59375 -99.640625 70.820312 -99.546875 73.59375 -99.453125 C 76.363281 -99.359375 78.925781 -99.3125 81.28125 -99.3125 C 83.71875 -99.3125 86.132812 -99.359375 88.53125 -99.453125 C 90.925781 -99.546875 92.875 -99.640625 94.375 -99.734375 Z M 94.375 -99.734375 "/></g></g></g><g fill="#f2ece4" fill-opacity="1"><g transform="translate(538.762145, 150.385954)"><g><path d="M 36.0625 -101.28125 C 40.757812 -101.28125 44.328125 -100.738281 46.765625 -99.65625 C 49.203125 -98.570312 51.363281 -97.375 53.25 -96.0625 C 54.375 -95.40625 55.285156 -94.910156 55.984375 -94.578125 C 56.691406 -94.253906 57.375 -94.09375 58.03125 -94.09375 C 58.96875 -94.09375 59.644531 -94.609375 60.0625 -95.640625 C 60.488281 -96.671875 60.847656 -98.222656 61.140625 -100.296875 L 64.375 -100.296875 C 64.28125 -98.691406 64.160156 -96.785156 64.015625 -94.578125 C 63.878906 -92.378906 63.785156 -89.472656 63.734375 -85.859375 C 63.691406 -82.242188 63.671875 -77.476562 63.671875 -71.5625 L 60.421875 -71.5625 C 60.140625 -76.0625 59.15625 -80.378906 57.46875 -84.515625 C 55.78125 -88.648438 53.316406 -92.03125 50.078125 -94.65625 C 46.835938 -97.28125 42.585938 -98.59375 37.328125 -98.59375 C 32.347656 -98.59375 28.238281 -97.09375 25 -94.09375 C 21.757812 -91.09375 20.140625 -87.148438 20.140625 -82.265625 C 20.140625 -78.035156 21.21875 -74.488281 23.375 -71.625 C 25.539062 -68.757812 28.429688 -66.175781 32.046875 -63.875 C 35.660156 -61.570312 39.582031 -59.109375 43.8125 -56.484375 C 48.6875 -53.484375 53.023438 -50.503906 56.828125 -47.546875 C 60.640625 -44.585938 63.644531 -41.320312 65.84375 -37.75 C 68.050781 -34.175781 69.15625 -29.859375 69.15625 -24.796875 C 69.15625 -18.785156 67.789062 -13.804688 65.0625 -9.859375 C 62.34375 -5.910156 58.726562 -2.953125 54.21875 -0.984375 C 49.71875 0.984375 44.742188 1.96875 39.296875 1.96875 C 34.316406 1.96875 30.367188 1.40625 27.453125 0.28125 C 24.546875 -0.84375 22.0625 -2.015625 20 -3.234375 C 17.9375 -4.554688 16.34375 -5.21875 15.21875 -5.21875 C 14.269531 -5.21875 13.582031 -4.695312 13.15625 -3.65625 C 12.738281 -2.625 12.390625 -1.078125 12.109375 0.984375 L 8.875 0.984375 C 9.0625 -0.984375 9.175781 -3.304688 9.21875 -5.984375 C 9.269531 -8.660156 9.316406 -12.15625 9.359375 -16.46875 C 9.410156 -20.789062 9.4375 -26.238281 9.4375 -32.8125 L 12.671875 -32.8125 C 13.046875 -27.1875 14.101562 -21.929688 15.84375 -17.046875 C 17.582031 -12.160156 20.257812 -8.238281 23.875 -5.28125 C 27.488281 -2.320312 32.300781 -0.84375 38.3125 -0.84375 C 41.414062 -0.84375 44.347656 -1.472656 47.109375 -2.734375 C 49.878906 -4.003906 52.15625 -6.023438 53.9375 -8.796875 C 55.726562 -11.566406 56.625 -15.160156 56.625 -19.578125 C 56.625 -23.429688 55.707031 -26.789062 53.875 -29.65625 C 52.039062 -32.519531 49.476562 -35.191406 46.1875 -37.671875 C 42.90625 -40.160156 39.0625 -42.722656 34.65625 -45.359375 C 30.238281 -48.078125 26.101562 -50.84375 22.25 -53.65625 C 18.40625 -56.476562 15.332031 -59.742188 13.03125 -63.453125 C 10.726562 -67.160156 9.578125 -71.644531 9.578125 -76.90625 C 9.578125 -82.445312 10.820312 -87.023438 13.3125 -90.640625 C 15.800781 -94.253906 19.0625 -96.929688 23.09375 -98.671875 C 27.132812 -100.410156 31.457031 -101.28125 36.0625 -101.28125 Z M 36.0625 -101.28125 "/></g></g></g></g></g><g clip-path="url(#2d61c55802)"><g transform="matrix(1, 0, 0, 1, 253, 0.000000000000113687)"><g clip-path="url(#077a021ead)"><g clip-path="url(#c52b0ad0a0)"><path fill="#f2ece4" d="M 306.082031 779.695312 C 306.082031 779.695312 432.757812 624.300781 315.21875 480.65625 C 227.457031 373.390625 166.710938 257.40625 179.546875 147.890625 C 205.234375 -71.238281 852.769531 44.945312 538.511719 511.347656 C 442.59375 653.71875 525.832031 724.339844 525.832031 724.339844 C 501.464844 633.6875 529.730469 604.4375 587.25 504.027344 C 818.3125 100.644531 438.972656 -81.09375 219.890625 39.273438 C 219.890625 39.273438 110.855469 81.714844 95.828125 207.070312 C 80.8125 332.425781 65.785156 341.578125 38.371094 368.339844 C 10.941406 395.101562 -6.683594 402.621094 5.066406 421.226562 C 16.816406 439.84375 61.214844 452.898438 47.507812 468.890625 C 33.800781 484.882812 27.273438 485.859375 39.023438 499.257812 C 50.773438 512.636719 56.972656 516.878906 56.972656 516.878906 C 56.972656 516.878906 30.523438 523.253906 38.027344 541.375 C 45.535156 559.496094 60.222656 562.585938 59.570312 598.175781 C 58.917969 633.765625 66.75 674.574219 127.15625 660.527344 C 294.628906 621.613281 340.582031 622.949219 306.082031 779.695312 " fill-opacity="1" fill-rule="evenodd"/></g><path fill="#f2ece4" d="M 432.445312 682.71875 C 432.289062 682.484375 388.589844 619.871094 418.179688 494.066406 L 418.226562 494.066406 L 418.363281 493.289062 C 420.152344 485.753906 422.203125 477.996094 424.535156 470.007812 C 430.394531 457.46875 441.707031 449.402344 471.886719 427.925781 C 480.21875 421.988281 490.023438 415.023438 505.722656 403.570312 C 537.160156 380.648438 579.074219 316.074219 552.640625 236.535156 C 552.671875 236.785156 563.71875 325.058594 488.472656 379.917969 C 477.871094 387.640625 465.40625 396.515625 454.855469 404.039062 C 451.683594 406.289062 448.71875 408.417969 445.902344 410.441406 C 448.578125 404.113281 451.390625 397.695312 454.40625 391.152344 C 466.121094 365.699219 474.734375 341.859375 480.699219 319.601562 C 518.277344 274.765625 535.296875 189.632812 488.285156 135.78125 C 488.378906 136.03125 514.175781 202.296875 490.414062 264.449219 C 493.816406 191.203125 443.992188 83.828125 360.414062 97.566406 C 367.71875 98.453125 376.046875 100.878906 384.75 104.886719 C 405.140625 114.273438 426.789062 132.039062 441.972656 158.953125 C 455.851562 183.539062 464.351562 215.835938 461.785156 256.550781 C 416.578125 227.273438 391.433594 165.480469 391.355469 165.28125 C 392.132812 214.421875 433.441406 260.515625 459.441406 278.417969 C 455.972656 301.402344 449.167969 326.71875 438.179688 354.476562 C 419.484375 268.222656 340.957031 176.996094 252.605469 167.75 C 252.960938 167.90625 336.664062 203.558594 383.367188 280.285156 C 329.640625 278.09375 265.691406 308.628906 261.121094 347.046875 C 261.277344 346.847656 311.210938 281.277344 395.023438 302.074219 C 409.800781 333.929688 417.726562 371.726562 412.273438 415.800781 C 379.265625 502.644531 356.527344 624.503906 432.445312 682.71875 " fill-opacity="1" fill-rule="nonzero"/><path fill="#d4b8ac" d="M 377.878906 500.375 C 377.757812 487.867188 377.539062 478.183594 378.84375 455.976562 C 380.148438 433.765625 343.800781 420.371094 336.246094 407.71875 C 328.691406 395.070312 327.402344 392.519531 327.402344 392.519531 C 327.402344 392.519531 322.273438 394.214844 316.710938 439.921875 C 311.394531 483.46875 339.726562 484.121094 373.125 513.382812 C 373.125 513.382812 345.292969 480.1875 342.867188 454.265625 C 342.867188 454.265625 358.160156 487.429688 377.878906 500.375 " fill-opacity="1" fill-rule="evenodd"/><path fill="#556f5f" d="M 399.839844 418.007812 C 399.730469 407.191406 399.546875 398.832031 400.679688 379.636719 C 401.796875 360.445312 370.40625 348.867188 363.863281 337.925781 C 357.320312 326.984375 356.214844 324.792969 356.214844 324.792969 C 356.214844 324.792969 351.789062 326.253906 346.96875 365.757812 C 342.371094 403.398438 366.847656 403.960938 395.722656 429.246094 C 395.722656 429.246094 371.664062 400.554688 369.566406 378.144531 C 369.582031 378.160156 382.792969 406.820312 399.839844 418.007812 " fill-opacity="1" fill-rule="evenodd"/><path fill="#8fa68a" d="M 336.183594 308.398438 C 330.046875 310.851562 325.320312 312.828125 314.148438 316.449219 C 302.957031 320.070312 303.347656 340.535156 298.558594 346.691406 C 293.789062 352.84375 292.777344 353.964844 292.777344 353.964844 C 292.777344 353.964844 294.597656 356.15625 318.171875 350.140625 C 340.644531 344.390625 335.515625 330.324219 343.503906 308.257812 C 343.503906 308.257812 332.5 328.335938 320.207031 334.507812 C 320.207031 334.507812 333.605469 320.597656 336.183594 308.398438 " fill-opacity="1" fill-rule="evenodd"/><path fill="#d4b8ac" d="M 345.105469 272.886719 C 336.914062 272.3125 330.589844 271.796875 315.996094 271.78125 C 301.402344 271.765625 294.050781 247.445312 286.0625 241.992188 C 278.074219 236.535156 276.460938 235.601562 276.460938 235.601562 C 276.460938 235.601562 277.765625 232.308594 307.914062 230.460938 C 336.636719 228.6875 335.949219 247.257812 353.808594 270.273438 C 353.808594 270.273438 333.152344 250.753906 316.292969 248.144531 C 316.292969 248.160156 337.410156 259.472656 345.105469 272.886719 " fill-opacity="1" fill-rule="evenodd"/><path fill="#556f5f" d="M 298.3125 291.269531 C 292.636719 291.96875 288.238281 292.453125 278.261719 294.363281 C 268.285156 296.292969 260.03125 280.625 253.847656 277.953125 C 247.664062 275.28125 246.433594 274.859375 246.433594 274.859375 C 246.433594 274.859375 246.902344 272.4375 267.257812 267.167969 C 286.671875 262.148438 288.660156 274.9375 303.921875 288.320312 C 303.921875 288.320312 287.214844 277.703125 275.324219 278.15625 C 275.324219 278.171875 291.253906 283.113281 298.3125 291.269531 " fill-opacity="1" fill-rule="evenodd"/><path fill="#8fa68a" d="M 269 309.734375 C 263.746094 312.003906 259.660156 313.695312 250.628906 318.359375 C 241.601562 323.023438 229.261719 310.324219 222.578125 309.5 C 215.894531 308.675781 214.589844 308.613281 214.589844 308.613281 C 214.589844 308.613281 214.359375 306.160156 232.402344 295.359375 C 249.605469 285.070312 255.121094 296.789062 273.539062 305.304688 C 273.539062 305.304688 254.515625 299.835938 243.234375 303.625 C 243.25 303.640625 259.941406 303.890625 269 309.734375 " fill-opacity="1" fill-rule="evenodd"/><path fill="#556f5f" d="M 289.25 342.464844 C 288.472656 348.121094 287.804688 352.503906 287.105469 362.636719 C 286.40625 372.785156 269.15625 376.730469 264.992188 382.03125 C 260.824219 387.332031 260.09375 388.402344 260.09375 388.402344 C 260.09375 388.402344 257.871094 387.332031 257.996094 366.304688 C 258.121094 346.253906 271.003906 347.609375 287.835938 336.292969 C 287.835938 336.292969 273.289062 349.722656 270.679688 361.332031 C 270.695312 361.332031 279.550781 347.1875 289.25 342.464844 " fill-opacity="1" fill-rule="evenodd"/><path fill="#8fa68a" d="M 298.402344 217.28125 C 292.015625 219.65625 287.042969 221.429688 276.007812 226.417969 C 264.960938 231.40625 251.066406 215.523438 243.171875 214.140625 C 235.261719 212.757812 233.722656 212.601562 233.722656 212.601562 C 233.722656 212.601562 233.582031 209.664062 255.757812 197.933594 C 276.878906 186.742188 282.722656 201.039062 304.121094 212.339844 C 304.121094 212.339844 281.820312 204.644531 268.160156 208.453125 C 268.113281 208.4375 287.976562 209.757812 298.402344 217.28125 " fill-opacity="1" fill-rule="evenodd"/><path fill="#556f5f" d="M 254.734375 185.078125 C 249.261719 187.113281 245.019531 188.621094 235.570312 192.894531 C 226.121094 197.15625 214.234375 183.570312 207.472656 182.390625 C 200.710938 181.210938 199.390625 181.070312 199.390625 181.070312 C 199.390625 181.070312 199.28125 178.550781 218.242188 168.511719 C 236.316406 158.9375 241.320312 171.171875 259.613281 180.835938 C 259.613281 180.835938 240.527344 174.246094 228.84375 177.511719 C 228.84375 177.527344 245.8125 178.644531 254.734375 185.078125 " fill-opacity="1" fill-rule="evenodd"/><path fill="#8fa68a" d="M 435.039062 310.292969 C 431.140625 305.957031 428.15625 302.570312 420.710938 295.359375 C 413.269531 288.148438 421.503906 272.09375 420.105469 265.363281 C 418.707031 258.636719 418.351562 257.359375 418.351562 257.359375 C 418.351562 257.359375 420.648438 256.335938 436.96875 270.246094 C 452.523438 283.515625 443.011719 292.671875 440.777344 313.246094 C 440.777344 313.246094 439.859375 293.074219 432.507812 283.421875 C 432.523438 283.421875 437.730469 299.632812 435.039062 310.292969 " fill-opacity="1" fill-rule="evenodd"/><path fill="#8fa68a" d="M 405.449219 259.800781 C 402.09375 256.085938 399.546875 253.179688 393.15625 246.996094 C 386.769531 240.808594 393.839844 227.039062 392.644531 221.257812 C 391.449219 215.492188 391.136719 214.390625 391.136719 214.390625 C 391.136719 214.390625 393.109375 213.503906 407.113281 225.4375 C 420.464844 236.816406 412.304688 244.679688 410.378906 262.332031 C 410.378906 262.332031 409.585938 245.035156 403.289062 236.738281 C 403.289062 236.753906 407.765625 250.648438 405.449219 259.800781 " fill-opacity="1" fill-rule="evenodd"/><path fill="#d4b8ac" d="M 369.269531 222.035156 C 364.734375 217 361.28125 213.070312 352.625 204.707031 C 343.984375 196.332031 353.542969 177.699219 351.925781 169.878906 C 350.3125 162.078125 349.890625 160.585938 349.890625 160.585938 C 349.890625 160.585938 352.550781 159.390625 371.507812 175.550781 C 389.566406 190.953125 378.519531 201.582031 375.921875 225.46875 C 375.921875 225.46875 374.851562 202.066406 366.332031 190.84375 C 366.332031 190.84375 372.394531 209.648438 369.269531 222.035156 " fill-opacity="1" fill-rule="evenodd"/><path fill="#556f5f" d="M 326.546875 186.945312 C 322.492188 182.4375 319.398438 178.925781 311.660156 171.433594 C 303.921875 163.945312 312.484375 147.253906 311.039062 140.273438 C 309.59375 133.28125 309.21875 131.960938 309.21875 131.960938 C 309.21875 131.960938 311.597656 130.886719 328.570312 145.355469 C 344.730469 159.140625 334.847656 168.652344 332.53125 190.035156 C 332.53125 190.035156 331.570312 169.085938 323.9375 159.046875 C 323.921875 159.03125 329.347656 175.863281 326.546875 186.945312 " fill-opacity="1" fill-rule="evenodd"/><path fill="#d4b8ac" d="M 285.226562 171.730469 C 280.019531 168.480469 276.039062 165.902344 266.421875 160.757812 C 256.816406 155.613281 260.515625 136.996094 257.15625 130.59375 C 253.816406 124.191406 253.070312 123.007812 253.070312 123.007812 C 253.070312 123.007812 255.089844 121.300781 275.621094 130.671875 C 295.1875 139.605469 288.191406 151.605469 291.875 173.050781 C 291.875 173.050781 285.132812 152.925781 274.921875 145.277344 C 274.921875 145.292969 284.867188 160.183594 285.226562 171.730469 " fill-opacity="1" fill-rule="evenodd"/><path fill="#d4b8ac" d="M 440.214844 225.9375 C 436.332031 221.617188 433.363281 218.242188 425.949219 211.0625 C 418.535156 203.882812 426.742188 187.890625 425.359375 181.195312 C 423.960938 174.496094 423.601562 173.222656 423.601562 173.222656 C 423.601562 173.222656 425.886719 172.195312 442.144531 186.058594 C 457.636719 199.269531 448.15625 208.390625 445.933594 228.890625 C 445.933594 228.890625 445.019531 208.808594 437.699219 199.175781 C 437.714844 199.175781 442.90625 215.308594 440.214844 225.9375 " fill-opacity="1" fill-rule="evenodd"/><path fill="#556f5f" d="M 405.1875 184.457031 C 403.195312 180.011719 401.707031 176.546875 397.648438 168.902344 C 393.59375 161.253906 404.285156 150.625 404.90625 144.921875 C 405.527344 139.21875 405.574219 138.113281 405.574219 138.113281 C 405.574219 138.113281 407.65625 137.882812 417.042969 153.140625 C 425.980469 167.6875 416.066406 172.507812 408.976562 188.28125 C 408.976562 188.28125 413.4375 172.023438 410.113281 162.46875 C 410.113281 162.46875 410.066406 176.671875 405.1875 184.457031 " fill-opacity="1" fill-rule="evenodd"/><path fill="#8fa68a" d="M 384.90625 157.804688 C 381.96875 155.410156 379.714844 153.515625 374.214844 149.613281 C 368.710938 145.714844 372.425781 134.570312 370.855469 130.390625 C 369.285156 126.195312 368.929688 125.417969 368.929688 125.417969 C 368.929688 125.417969 370.296875 124.53125 382.171875 131.867188 C 393.484375 138.859375 388.277344 145.683594 388.882812 159.140625 C 388.882812 159.140625 386.289062 146.257812 380.617188 140.773438 C 380.617188 140.773438 385.574219 150.6875 384.90625 157.804688 " fill-opacity="1" fill-rule="evenodd"/><path fill="#8fa68a" d="M 472.199219 164.734375 C 470.085938 160.351562 468.5 156.933594 464.210938 149.414062 C 459.9375 141.890625 470.304688 130.949219 470.769531 125.230469 C 471.21875 119.511719 471.234375 118.410156 471.234375 118.410156 C 471.234375 118.410156 473.320312 118.113281 483.125 133.109375 C 492.480469 147.390625 482.707031 152.488281 476.085938 168.464844 C 476.085938 168.464844 480.078125 152.085938 476.457031 142.621094 C 476.472656 142.621094 476.847656 156.824219 472.199219 164.734375 " fill-opacity="1" fill-rule="evenodd"/><path fill="#d4b8ac" d="M 450.132812 131.308594 C 448.21875 127.34375 446.789062 124.265625 442.921875 117.460938 C 439.050781 110.667969 448.421875 100.785156 448.839844 95.625 C 449.261719 90.464844 449.261719 89.472656 449.261719 89.472656 C 449.261719 89.472656 451.140625 89.207031 460 102.742188 C 468.4375 115.640625 459.625 120.242188 453.644531 134.664062 C 453.644531 134.664062 457.25 119.867188 453.984375 111.335938 C 454 111.320312 454.34375 124.160156 450.132812 131.308594 " fill-opacity="1" fill-rule="evenodd"/><path fill="#8fa68a" d="M 429.089844 109.691406 C 426.335938 106.253906 424.238281 103.582031 418.957031 97.832031 C 413.65625 92.082031 420.554688 80.347656 419.8125 75.21875 C 419.050781 70.089844 418.832031 69.113281 418.832031 69.113281 C 418.832031 69.113281 420.601562 68.429688 432.289062 79.617188 C 443.433594 90.277344 435.863281 96.757812 433.285156 112.144531 C 433.285156 112.144531 433.472656 96.929688 428.359375 89.332031 C 428.359375 89.363281 431.574219 101.777344 429.089844 109.691406 " fill-opacity="1" fill-rule="evenodd"/><path fill="#556f5f" d="M 405.28125 94.164062 C 401.660156 91.660156 398.890625 89.6875 392.179688 85.679688 C 385.464844 81.667969 388.742188 68.460938 386.550781 63.765625 C 384.363281 59.074219 383.878906 58.203125 383.878906 58.203125 C 383.878906 58.203125 385.386719 57.050781 399.777344 64.449219 C 413.484375 71.503906 408.078125 79.867188 410.003906 95.359375 C 410.003906 95.359375 405.839844 80.722656 398.785156 74.894531 C 398.785156 74.894531 405.402344 85.878906 405.28125 94.164062 " fill-opacity="1" fill-rule="evenodd"/><path fill="#d4b8ac" d="M 375.875 90.417969 C 373.171875 88.554688 371.121094 87.078125 366.117188 84.09375 C 361.113281 81.109375 363.550781 71.257812 361.921875 67.761719 C 360.289062 64.261719 359.929688 63.609375 359.929688 63.609375 C 359.929688 63.609375 361.050781 62.753906 371.773438 68.273438 C 382 73.527344 377.972656 79.757812 379.386719 91.304688 C 379.386719 91.304688 376.296875 80.378906 371.027344 76.042969 C 371.042969 76.042969 375.984375 84.25 375.875 90.417969 " fill-opacity="1" fill-rule="evenodd"/><path fill="#8fa68a" d="M 354.195312 98.765625 C 350.28125 99.511719 347.234375 100.039062 340.363281 101.839844 C 333.511719 103.644531 327.046875 93.105469 322.617188 91.539062 C 318.1875 89.96875 317.316406 89.71875 317.316406 89.71875 C 317.316406 89.71875 317.535156 88.011719 331.476562 83.410156 C 344.761719 79.027344 346.738281 87.839844 357.972656 96.464844 C 357.972656 96.464844 345.851562 89.828125 337.597656 90.699219 C 337.582031 90.699219 348.914062 93.402344 354.195312 98.765625 " fill-opacity="1" fill-rule="evenodd"/><path fill="#556f5f" d="M 399.078125 124.128906 C 395.816406 124.75 393.28125 125.199219 387.546875 126.691406 C 381.828125 128.183594 376.433594 119.417969 372.753906 118.097656 C 369.070312 116.792969 368.339844 116.589844 368.339844 116.589844 C 368.339844 116.589844 368.507812 115.160156 380.132812 111.335938 C 391.214844 107.683594 392.847656 115.035156 402.21875 122.214844 C 402.21875 122.214844 392.117188 116.699219 385.230469 117.414062 C 385.246094 117.398438 394.679688 119.652344 399.078125 124.128906 " fill-opacity="1" fill-rule="evenodd"/><path fill="#d4b8ac" d="M 518.558594 233.441406 C 520.191406 228.066406 521.511719 223.933594 523.765625 214.1875 C 526.019531 204.460938 543.378906 203.277344 548.242188 198.785156 C 553.105469 194.296875 553.976562 193.363281 553.976562 193.363281 C 553.976562 193.363281 555.964844 194.746094 552.578125 215.136719 C 549.34375 234.578125 537.066406 231.265625 518.960938 239.644531 C 518.960938 239.644531 535.15625 228.859375 539.476562 217.996094 C 539.492188 218.011719 528.707031 230.367188 518.558594 233.441406 " fill-opacity="1" fill-rule="evenodd"/><path fill="#d4b8ac" d="M 523.734375 186.246094 C 523.996094 180.632812 524.246094 176.28125 524.027344 166.304688 C 523.8125 156.3125 540.332031 150.90625 543.9375 145.339844 C 547.542969 139.792969 548.148438 138.671875 548.148438 138.671875 C 548.148438 138.671875 550.417969 139.511719 552.171875 160.121094 C 553.835938 179.75 541.125 179.578125 525.644531 192.167969 C 525.644531 192.167969 538.683594 177.726562 540.191406 166.136719 C 540.207031 166.121094 532.792969 180.757812 523.734375 186.246094 " fill-opacity="1" fill-rule="evenodd"/><path fill="#556f5f" d="M 508.023438 151.945312 C 507.292969 147.082031 506.761719 143.304688 504.882812 134.773438 C 502.984375 126.242188 516.257812 118.765625 518.402344 113.386719 C 520.546875 108.011719 520.890625 106.9375 520.890625 106.9375 C 520.890625 106.9375 522.988281 107.28125 528.007812 124.671875 C 532.792969 141.238281 521.835938 143.257812 510.695312 156.703125 C 510.695312 156.703125 519.429688 142.078125 518.746094 131.867188 C 518.730469 131.867188 514.859375 145.683594 508.023438 151.945312 " fill-opacity="1" fill-rule="evenodd"/><path fill="#8fa68a" d="M 538.464844 288.988281 C 535.140625 285.351562 532.625 282.523438 526.28125 276.476562 C 519.957031 270.445312 526.8125 256.847656 525.597656 251.191406 C 524.386719 245.535156 524.074219 244.445312 524.074219 244.445312 C 524.074219 244.445312 526.003906 243.558594 539.851562 255.199219 C 553.058594 266.296875 545.085938 274.082031 543.332031 291.441406 C 543.332031 291.441406 542.429688 274.441406 536.183594 266.34375 C 536.167969 266.359375 540.65625 279.988281 538.464844 288.988281 " fill-opacity="1" fill-rule="evenodd"/><path fill="#d4b8ac" d="M 528.597656 321.699219 C 525.597656 318.421875 523.3125 315.871094 517.609375 310.433594 C 511.90625 304.992188 518.09375 292.730469 516.988281 287.621094 C 515.886719 282.507812 515.605469 281.542969 515.605469 281.542969 C 515.605469 281.542969 517.347656 280.75 529.839844 291.242188 C 541.746094 301.25 534.566406 308.257812 532.980469 323.921875 C 532.980469 323.921875 532.171875 308.597656 526.53125 301.296875 C 526.515625 301.296875 530.570312 313.589844 528.597656 321.699219 " fill-opacity="1" fill-rule="evenodd"/><path fill="#556f5f" d="M 517.035156 345.929688 C 514.921875 343.628906 513.320312 341.828125 509.3125 337.988281 C 505.285156 334.148438 509.636719 325.523438 508.875 321.933594 C 508.097656 318.328125 507.914062 317.660156 507.914062 317.660156 C 507.914062 317.660156 509.140625 317.101562 517.9375 324.484375 C 526.3125 331.523438 521.261719 336.464844 520.144531 347.5 C 520.144531 347.5 519.570312 336.699219 515.605469 331.554688 C 515.574219 331.554688 518.433594 340.210938 517.035156 345.929688 " fill-opacity="1" fill-rule="evenodd"/><path fill="#556f5f" d="M 480.699219 332.128906 C 482.222656 329.394531 483.421875 327.3125 485.796875 322.277344 C 488.160156 317.257812 497.734375 318.65625 500.886719 316.789062 C 504.058594 314.925781 504.648438 314.519531 504.648438 314.519531 C 504.648438 314.519531 505.566406 315.5 501.339844 326.175781 C 497.296875 336.355469 491.019531 333.109375 480.203125 335.53125 C 480.203125 335.53125 490.273438 331.585938 493.894531 326.191406 C 493.878906 326.207031 486.558594 331.648438 480.699219 332.128906 " fill-opacity="1" fill-rule="evenodd"/><path fill="#d4b8ac" d="M 469.433594 364.546875 C 471.375 361.066406 472.914062 358.394531 475.929688 351.976562 C 478.945312 345.554688 491.160156 347.359375 495.199219 344.964844 C 499.242188 342.589844 499.988281 342.058594 499.988281 342.058594 C 499.988281 342.058594 501.167969 343.316406 495.757812 356.949219 C 490.601562 369.941406 482.582031 365.804688 468.765625 368.898438 C 468.765625 368.898438 481.617188 363.847656 486.25 356.980469 C 486.265625 356.996094 476.925781 363.941406 469.433594 364.546875 " fill-opacity="1" fill-rule="evenodd"/><path fill="#8fa68a" d="M 472.433594 434.808594 C 477.53125 431.667969 481.492188 429.292969 490.148438 423.121094 C 498.804688 416.9375 513.476562 428.234375 520.515625 428.0625 C 527.558594 427.910156 528.910156 427.769531 528.910156 427.769531 C 528.910156 427.769531 529.53125 430.269531 512.464844 444.164062 C 496.195312 457.40625 488.71875 446.105469 468.375 440.046875 C 468.375 440.046875 488.890625 442.84375 500.003906 437.234375 C 500.003906 437.25 482.691406 439.5 472.433594 434.808594 " fill-opacity="1" fill-rule="evenodd"/><path fill="#556f5f" d="M 507.292969 404.160156 C 511.519531 401.566406 514.8125 399.59375 521.976562 394.464844 C 529.15625 389.335938 541.308594 398.707031 547.152344 398.566406 C 552.996094 398.425781 554.117188 398.332031 554.117188 398.332031 C 554.117188 398.332031 554.628906 400.417969 540.488281 411.933594 C 526.996094 422.902344 520.8125 413.546875 503.933594 408.511719 C 503.933594 408.511719 520.9375 410.84375 530.152344 406.183594 C 530.152344 406.167969 515.792969 408.046875 507.292969 404.160156 " fill-opacity="1" fill-rule="evenodd"/><path fill="#d4b8ac" d="M 538.730469 374.199219 C 540.90625 369.738281 542.648438 366.320312 545.972656 358.160156 C 549.296875 350 564.589844 351.414062 569.457031 348.183594 C 574.320312 344.949219 575.207031 344.265625 575.207031 344.265625 C 575.207031 344.265625 576.742188 345.742188 570.949219 363.039062 C 565.414062 379.527344 555.171875 374.914062 538.21875 379.683594 C 538.21875 379.683594 553.835938 372.566406 559.136719 363.707031 C 559.121094 363.691406 547.992188 372.941406 538.730469 374.199219 " fill-opacity="1" fill-rule="evenodd"/><path fill="#8fa68a" d="M 556.679688 335.546875 C 558.171875 330.824219 559.371094 327.171875 561.453125 318.609375 C 563.519531 310.046875 578.859375 309.160156 583.179688 305.242188 C 587.515625 301.328125 588.292969 300.503906 588.292969 300.503906 C 588.292969 300.503906 590.03125 301.730469 586.859375 319.710938 C 583.847656 336.835938 573.03125 333.808594 556.976562 341.035156 C 556.976562 341.035156 571.367188 331.664062 575.285156 322.121094 C 575.285156 322.105469 565.664062 332.921875 556.679688 335.546875 " fill-opacity="1" fill-rule="evenodd"/><path fill="#556f5f" d="M 564.015625 288.878906 C 564.15625 283.921875 564.3125 280.082031 563.953125 271.285156 C 563.597656 262.472656 578.097656 257.421875 581.1875 252.464844 C 584.28125 247.507812 584.792969 246.511719 584.792969 246.511719 C 584.792969 246.511719 586.816406 247.226562 588.695312 265.363281 C 590.496094 282.660156 579.261719 282.707031 565.820312 294.070312 C 565.820312 294.070312 577.085938 281.109375 578.234375 270.867188 C 578.21875 270.867188 571.925781 283.890625 564.015625 288.878906 " fill-opacity="1" fill-rule="evenodd"/><path fill="#8fa68a" d="M 559.773438 241.992188 C 559.914062 237.03125 560.070312 233.195312 559.710938 224.398438 C 559.355469 215.585938 573.851562 210.535156 576.945312 205.578125 C 580.039062 200.621094 580.566406 199.625 580.566406 199.625 C 580.566406 199.625 582.585938 200.339844 584.46875 218.476562 C 586.253906 235.773438 575.035156 235.820312 561.589844 247.179688 C 561.589844 247.179688 572.859375 234.21875 574.007812 223.964844 C 573.976562 223.980469 567.683594 237.015625 559.773438 241.992188 " fill-opacity="1" fill-rule="evenodd"/><path fill="#556f5f" d="M 408.589844 587.886719 C 410.9375 575.59375 412.894531 566.113281 415.582031 544.03125 C 418.273438 521.945312 456.425781 515.265625 466.121094 504.167969 C 475.820312 493.070312 477.546875 490.804688 477.546875 490.804688 C 477.546875 490.804688 482.285156 493.382812 479.597656 539.335938 C 477.03125 583.132812 449.058594 578.703125 410.953125 601.53125 C 410.953125 601.53125 444.273438 573.839844 451.28125 548.769531 C 451.28125 548.769531 430.300781 578.671875 408.589844 587.886719 " fill-opacity="1" fill-rule="evenodd"/><path fill="#556f5f" d="M 422.964844 506.25 C 425.296875 499.382812 427.160156 494.097656 430.457031 481.632812 C 433.75 469.167969 456.175781 468.363281 462.625 462.765625 C 469.074219 457.171875 470.242188 456.007812 470.242188 456.007812 C 470.242188 456.007812 472.757812 457.871094 467.566406 484.027344 C 462.625 508.953125 446.914062 504.199219 423.246094 514.269531 C 423.246094 514.269531 444.566406 501.027344 450.582031 487.199219 C 450.582031 487.199219 436.175781 502.691406 422.964844 506.25 " fill-opacity="1" fill-rule="evenodd"/></g></g></g></g></g></svg>